<svg width="271" height="81" viewBox="0 0 271 81" fill="none" xmlns="http://www.w3.org/2000/svg">
<path d="M15.84 42H11.616L0.528 10.496H5.016L13.64 36.06H13.816L22.792 10.496H27.28L15.84 42ZM49.1071 20.44L35.5991 51.504H31.4191L36.4351 40.636L27.5471 20.44H31.9471L38.3711 35.928H38.4591L44.7071 20.44H49.1071ZM53.58 35.4C53.58 36.456 54.02 37.336 54.9 38.04C55.8093 38.744 56.8653 39.096 58.068 39.096C59.7693 39.096 61.28 38.4653 62.6 37.204C63.9493 35.9427 64.624 34.4613 64.624 32.76C63.3626 31.7627 61.6026 31.264 59.344 31.264C57.7013 31.264 56.3226 31.66 55.208 32.452C54.1226 33.244 53.58 34.2267 53.58 35.4ZM58.816 19.736C61.808 19.736 64.1693 20.5427 65.9 22.156C67.6306 23.74 68.496 25.9253 68.496 28.712V42H64.624V39.008H64.448C62.776 41.472 60.5466 42.704 57.76 42.704C55.384 42.704 53.3893 42 51.776 40.592C50.192 39.184 49.4 37.424 49.4 35.312C49.4 33.0827 50.236 31.308 51.908 29.988C53.6093 28.668 55.868 28.008 58.684 28.008C61.0893 28.008 63.0693 28.448 64.624 29.328V28.404C64.624 26.996 64.0666 25.808 62.952 24.84C61.8373 23.8427 60.532 23.344 59.036 23.344C56.7773 23.344 54.988 24.2973 53.668 26.204L50.104 23.96C52.0693 21.144 54.9733 19.736 58.816 19.736ZM83.6217 39.008C85.5577 39.008 87.1857 38.2747 88.5057 36.808C89.8257 35.3707 90.4857 33.508 90.4857 31.22C90.4857 28.9613 89.8257 27.0987 88.5057 25.632C87.1857 24.1653 85.5577 23.432 83.6217 23.432C81.6563 23.432 80.0137 24.1653 78.6937 25.632C77.403 27.0987 76.7577 28.9613 76.7577 31.22C76.7577 33.508 77.403 35.3853 78.6937 36.852C80.0137 38.2893 81.6563 39.008 83.6217 39.008ZM84.2817 42.704C82.6977 42.704 81.2457 42.3667 79.9257 41.692C78.635 41.0173 77.6377 40.1227 76.9337 39.008H76.7577L76.9337 42V51.504H72.8857V20.44H76.7577V23.432H76.9337C77.6377 22.3173 78.635 21.4227 79.9257 20.748C81.2457 20.0733 82.6977 19.736 84.2817 19.736C87.127 19.736 89.5323 20.8507 91.4977 23.08C93.5217 25.3387 94.5337 28.052 94.5337 31.22C94.5337 34.4173 93.5217 37.1307 91.4977 39.36C89.5323 41.5893 87.127 42.704 84.2817 42.704ZM101.189 35.4C101.189 36.456 101.629 37.336 102.509 38.04C103.419 38.744 104.475 39.096 105.677 39.096C107.379 39.096 108.889 38.4653 110.209 37.204C111.559 35.9427 112.233 34.4613 112.233 32.76C110.972 31.7627 109.212 31.264 106.953 31.264C105.311 31.264 103.932 31.66 102.817 32.452C101.732 33.244 101.189 34.2267 101.189 35.4ZM106.425 19.736C109.417 19.736 111.779 20.5427 113.509 22.156C115.24 23.74 116.105 25.9253 116.105 28.712V42H112.233V39.008H112.057C110.385 41.472 108.156 42.704 105.369 42.704C102.993 42.704 100.999 42 99.3853 40.592C97.8013 39.184 97.0093 37.424 97.0093 35.312C97.0093 33.0827 97.8453 31.308 99.5173 29.988C101.219 28.668 103.477 28.008 106.293 28.008C108.699 28.008 110.679 28.448 112.233 29.328V28.404C112.233 26.996 111.676 25.808 110.561 24.84C109.447 23.8427 108.141 23.344 106.645 23.344C104.387 23.344 102.597 24.2973 101.277 26.204L97.7133 23.96C99.6787 21.144 102.583 19.736 106.425 19.736ZM123.404 35.4C123.404 36.456 123.844 37.336 124.724 38.04C125.634 38.744 126.69 39.096 127.892 39.096C129.594 39.096 131.104 38.4653 132.424 37.204C133.774 35.9427 134.448 34.4613 134.448 32.76C133.187 31.7627 131.427 31.264 129.168 31.264C127.526 31.264 126.147 31.66 125.032 32.452C123.947 33.244 123.404 34.2267 123.404 35.4ZM128.64 19.736C131.632 19.736 133.994 20.5427 135.724 22.156C137.455 23.74 138.32 25.9253 138.32 28.712V42H134.448V39.008H134.272C132.6 41.472 130.371 42.704 127.584 42.704C125.208 42.704 123.214 42 121.6 40.592C120.016 39.184 119.224 37.424 119.224 35.312C119.224 33.0827 120.06 31.308 121.732 29.988C123.434 28.668 125.692 28.008 128.508 28.008C130.914 28.008 132.894 28.448 134.448 29.328V28.404C134.448 26.996 133.891 25.808 132.776 24.84C131.662 23.8427 130.356 23.344 128.86 23.344C126.602 23.344 124.812 24.2973 123.492 26.204L119.928 23.96C121.894 21.144 124.798 19.736 128.64 19.736ZM146.934 42H142.886V20.44H146.758V23.96H146.934C147.345 22.816 148.181 21.848 149.442 21.056C150.733 20.2347 151.994 19.824 153.226 19.824C154.399 19.824 155.397 20 156.218 20.352L154.986 24.268C154.487 24.0627 153.695 23.96 152.61 23.96C151.085 23.96 149.75 24.576 148.606 25.808C147.491 27.04 146.934 28.4773 146.934 30.12V42ZM164.106 13.004C164.106 13.796 163.828 14.4707 163.27 15.028C162.713 15.5853 162.038 15.864 161.246 15.864C160.454 15.864 159.78 15.5853 159.222 15.028C158.665 14.4707 158.386 13.796 158.386 13.004C158.386 12.212 158.665 11.5373 159.222 10.98C159.78 10.4227 160.454 10.144 161.246 10.144C162.038 10.144 162.713 10.4227 163.27 10.98C163.828 11.5373 164.106 12.212 164.106 13.004ZM163.27 20.44V42H159.222V20.44H163.27Z" fill="#745DFF"/>
<path d="M197.026 33.596C197.026 36.3533 196.014 38.568 193.99 40.24C191.937 41.8827 189.443 42.704 186.51 42.704C183.899 42.704 181.597 41.9413 179.602 40.416C177.607 38.8907 176.229 36.808 175.466 34.168L179.338 32.584C179.602 33.5227 179.969 34.3733 180.438 35.136C180.907 35.8987 181.45 36.5587 182.066 37.116C182.711 37.644 183.415 38.0693 184.178 38.392C184.941 38.6853 185.747 38.832 186.598 38.832C188.446 38.832 189.957 38.3627 191.13 37.424C192.303 36.456 192.89 35.18 192.89 33.596C192.89 32.276 192.406 31.1467 191.438 30.208C190.529 29.2987 188.827 28.4187 186.334 27.568C183.811 26.6587 182.242 26.0427 181.626 25.72C178.282 24.0187 176.61 21.5107 176.61 18.196C176.61 15.8787 177.534 13.8987 179.382 12.256C181.259 10.6133 183.562 9.792 186.29 9.792C188.695 9.792 190.778 10.408 192.538 11.64C194.298 12.8427 195.471 14.3533 196.058 16.172L192.274 17.756C191.922 16.5827 191.218 15.6147 190.162 14.852C189.135 14.06 187.874 13.664 186.378 13.664C184.794 13.664 183.459 14.104 182.374 14.984C181.289 15.8053 180.746 16.876 180.746 18.196C180.746 19.2813 181.171 20.22 182.022 21.012C182.961 21.804 184.999 22.7427 188.138 23.828C191.335 24.9133 193.609 26.248 194.958 27.832C196.337 29.3867 197.026 31.308 197.026 33.596ZM204.142 35.4C204.142 36.456 204.582 37.336 205.462 38.04C206.372 38.744 207.428 39.096 208.63 39.096C210.332 39.096 211.842 38.4653 213.162 37.204C214.512 35.9427 215.186 34.4613 215.186 32.76C213.925 31.7627 212.165 31.264 209.906 31.264C208.264 31.264 206.885 31.66 205.77 32.452C204.685 33.244 204.142 34.2267 204.142 35.4ZM209.378 19.736C212.37 19.736 214.732 20.5427 216.462 22.156C218.193 23.74 219.058 25.9253 219.058 28.712V42H215.186V39.008H215.01C213.338 41.472 211.109 42.704 208.322 42.704C205.946 42.704 203.952 42 202.338 40.592C200.754 39.184 199.962 37.424 199.962 35.312C199.962 33.0827 200.798 31.308 202.47 29.988C204.172 28.668 206.43 28.008 209.246 28.008C211.652 28.008 213.632 28.448 215.186 29.328V28.404C215.186 26.996 214.629 25.808 213.514 24.84C212.4 23.8427 211.094 23.344 209.598 23.344C207.34 23.344 205.55 24.2973 204.23 26.204L200.666 23.96C202.632 21.144 205.536 19.736 209.378 19.736ZM223.624 20.44H227.496V23.432H227.672C228.288 22.376 229.227 21.496 230.488 20.792C231.779 20.088 233.113 19.736 234.492 19.736C237.132 19.736 239.156 20.4987 240.564 22.024C242.001 23.52 242.72 25.6613 242.72 28.448V42H238.672V28.712C238.584 25.192 236.809 23.432 233.348 23.432C231.735 23.432 230.385 24.092 229.3 25.412C228.215 26.7027 227.672 28.2573 227.672 30.076V42H223.624V20.44ZM256.937 39.008C258.932 39.008 260.56 38.2893 261.821 36.852C263.141 35.4147 263.801 33.5373 263.801 31.22C263.801 28.9613 263.141 27.0987 261.821 25.632C260.53 24.1653 258.902 23.432 256.937 23.432C255.001 23.432 253.373 24.1653 252.053 25.632C250.733 27.0987 250.073 28.9613 250.073 31.22C250.073 33.508 250.733 35.3707 252.053 36.808C253.373 38.2747 255.001 39.008 256.937 39.008ZM256.805 52.208C255.602 52.208 254.473 52.0467 253.417 51.724C252.361 51.4307 251.393 51.0053 250.513 50.448C249.662 49.8907 248.929 49.2307 248.313 48.468C247.697 47.7053 247.228 46.8547 246.905 45.916L250.733 44.332C251.173 45.5933 251.936 46.6053 253.021 47.368C254.106 48.1307 255.368 48.512 256.805 48.512C259.005 48.512 260.721 47.852 261.953 46.532C263.185 45.212 263.801 43.3933 263.801 41.076V39.008H263.625C262.862 40.152 261.821 41.0613 260.501 41.736C259.21 42.3813 257.802 42.704 256.277 42.704C253.461 42.704 251.041 41.604 249.017 39.404C247.022 37.1453 246.025 34.4173 246.025 31.22C246.025 28.0227 247.022 25.3093 249.017 23.08C251.041 20.8507 253.461 19.736 256.277 19.736C257.802 19.736 259.21 20.0733 260.501 20.748C261.821 21.3933 262.862 22.288 263.625 23.432H263.801V20.44H267.673V41.076C267.673 44.5373 266.69 47.2507 264.725 49.216C262.73 51.2107 260.09 52.208 256.805 52.208Z" fill="white"/>
<path d="M53.248 63.2213L50.016 74.3733H48.384L45.792 65.3973L43.104 74.3733L41.488 74.3893L38.368 63.2213H39.92L42.352 72.6773L45.04 63.2213H46.672L49.232 72.6453L51.68 63.2213H53.248ZM62.8414 69.6533C62.8414 69.9306 62.8254 70.224 62.7934 70.5333H55.7854C55.8387 71.3973 56.132 72.0746 56.6654 72.5653C57.2094 73.0453 57.8654 73.2853 58.6334 73.2853C59.2627 73.2853 59.7854 73.1413 60.2014 72.8533C60.628 72.5546 60.9267 72.16 61.0974 71.6693H62.6654C62.4307 72.512 61.9614 73.2 61.2574 73.7333C60.5534 74.256 59.6787 74.5173 58.6334 74.5173C57.8014 74.5173 57.0547 74.3306 56.3934 73.9573C55.7427 73.584 55.2307 73.056 54.8574 72.3733C54.484 71.68 54.2974 70.88 54.2974 69.9733C54.2974 69.0666 54.4787 68.272 54.8414 67.5893C55.204 66.9066 55.7107 66.384 56.3614 66.0213C57.0227 65.648 57.78 65.4613 58.6334 65.4613C59.4654 65.4613 60.2014 65.6426 60.8414 66.0053C61.4814 66.368 61.972 66.8693 62.3134 67.5093C62.6654 68.1386 62.8414 68.8533 62.8414 69.6533ZM61.3374 69.3493C61.3374 68.7946 61.2147 68.32 60.9694 67.9253C60.724 67.52 60.388 67.216 59.9614 67.0133C59.5454 66.8 59.0814 66.6933 58.5694 66.6933C57.8334 66.6933 57.204 66.928 56.6814 67.3973C56.1694 67.8666 55.876 68.5173 55.8014 69.3493H61.3374ZM75.6209 71.8933H70.7569L69.8609 74.3733H68.3249L72.3569 63.2853H74.0369L78.0529 74.3733H76.5169L75.6209 71.8933ZM75.2049 70.7093L73.1889 65.0773L71.1729 70.7093H75.2049ZM87.5861 65.6053V74.3733H86.1301V73.0773C85.8528 73.5253 85.4635 73.8773 84.9621 74.1333C84.4715 74.3786 83.9275 74.5013 83.3301 74.5013C82.6475 74.5013 82.0341 74.3626 81.4901 74.0853C80.9461 73.7973 80.5141 73.3706 80.1941 72.8053C79.8848 72.24 79.7301 71.552 79.7301 70.7413V65.6053H81.1701V70.5493C81.1701 71.4133 81.3888 72.08 81.8261 72.5493C82.2635 73.008 82.8608 73.2373 83.6181 73.2373C84.3968 73.2373 85.0101 72.9973 85.4581 72.5173C85.9061 72.0373 86.1301 71.3386 86.1301 70.4213V65.6053H87.5861ZM91.8205 66.8053V71.9733C91.8205 72.4 91.9112 72.704 92.0925 72.8853C92.2738 73.056 92.5885 73.1413 93.0365 73.1413H94.1085V74.3733H92.7965C91.9858 74.3733 91.3778 74.1866 90.9725 73.8133C90.5672 73.44 90.3645 72.8266 90.3645 71.9733V66.8053H89.2285V65.6053H90.3645V63.3973H91.8205V65.6053H94.1085V66.8053H91.8205ZM99.6966 74.5173C98.8753 74.5173 98.1286 74.3306 97.4566 73.9573C96.7953 73.584 96.2726 73.056 95.8886 72.3733C95.5153 71.68 95.3286 70.88 95.3286 69.9733C95.3286 69.0773 95.5206 68.288 95.9046 67.6053C96.2993 66.912 96.8326 66.384 97.5046 66.0213C98.1766 65.648 98.9286 65.4613 99.7606 65.4613C100.593 65.4613 101.345 65.648 102.017 66.0213C102.689 66.384 103.217 66.9066 103.601 67.5893C103.995 68.272 104.193 69.0666 104.193 69.9733C104.193 70.88 103.99 71.68 103.585 72.3733C103.19 73.056 102.651 73.584 101.969 73.9573C101.286 74.3306 100.529 74.5173 99.6966 74.5173ZM99.6966 73.2373C100.219 73.2373 100.71 73.1146 101.169 72.8693C101.627 72.624 101.995 72.256 102.273 71.7653C102.561 71.2746 102.705 70.6773 102.705 69.9733C102.705 69.2693 102.566 68.672 102.289 68.1813C102.011 67.6906 101.649 67.328 101.201 67.0933C100.753 66.848 100.267 66.7253 99.7446 66.7253C99.2113 66.7253 98.7206 66.848 98.2726 67.0933C97.8353 67.328 97.4833 67.6906 97.2166 68.1813C96.95 68.672 96.8166 69.2693 96.8166 69.9733C96.8166 70.688 96.9446 71.2906 97.2006 71.7813C97.4673 72.272 97.8193 72.64 98.2566 72.8853C98.694 73.12 99.174 73.2373 99.6966 73.2373ZM116.651 65.4453C117.334 65.4453 117.942 65.5893 118.475 65.8773C119.008 66.1546 119.43 66.576 119.739 67.1413C120.048 67.7066 120.203 68.3946 120.203 69.2053V74.3733H118.763V69.4133C118.763 68.5386 118.544 67.872 118.107 67.4133C117.68 66.944 117.099 66.7093 116.363 66.7093C115.606 66.7093 115.003 66.9546 114.555 67.4453C114.107 67.9253 113.883 68.624 113.883 69.5413V74.3733H112.443V69.4133C112.443 68.5386 112.224 67.872 111.787 67.4133C111.36 66.944 110.779 66.7093 110.043 66.7093C109.286 66.7093 108.683 66.9546 108.235 67.4453C107.787 67.9253 107.563 68.624 107.563 69.5413V74.3733H106.107V65.6053H107.563V66.8693C107.851 66.4106 108.235 66.0586 108.715 65.8133C109.206 65.568 109.744 65.4453 110.331 65.4453C111.067 65.4453 111.718 65.6106 112.283 65.9413C112.848 66.272 113.27 66.7573 113.547 67.3973C113.792 66.7786 114.198 66.2986 114.763 65.9573C115.328 65.616 115.958 65.4453 116.651 65.4453ZM122.047 69.9573C122.047 69.0613 122.229 68.2773 122.591 67.6053C122.954 66.9226 123.45 66.3946 124.079 66.0213C124.719 65.648 125.429 65.4613 126.207 65.4613C126.975 65.4613 127.642 65.6266 128.207 65.9573C128.773 66.288 129.194 66.704 129.471 67.2053V65.6053H130.943V74.3733H129.471V72.7413C129.183 73.2533 128.751 73.68 128.175 74.0213C127.61 74.352 126.949 74.5173 126.191 74.5173C125.413 74.5173 124.709 74.3253 124.079 73.9413C123.45 73.5573 122.954 73.0186 122.591 72.3253C122.229 71.632 122.047 70.8426 122.047 69.9573ZM129.471 69.9733C129.471 69.312 129.338 68.736 129.071 68.2453C128.805 67.7546 128.442 67.3813 127.983 67.1253C127.535 66.8586 127.039 66.7253 126.495 66.7253C125.951 66.7253 125.455 66.8533 125.007 67.1093C124.559 67.3653 124.202 67.7386 123.935 68.2293C123.669 68.72 123.535 69.296 123.535 69.9573C123.535 70.6293 123.669 71.216 123.935 71.7173C124.202 72.208 124.559 72.5866 125.007 72.8533C125.455 73.1093 125.951 73.2373 126.495 73.2373C127.039 73.2373 127.535 73.1093 127.983 72.8533C128.442 72.5866 128.805 72.208 129.071 71.7173C129.338 71.216 129.471 70.6346 129.471 69.9733ZM135.18 66.8053V71.9733C135.18 72.4 135.271 72.704 135.452 72.8853C135.633 73.056 135.948 73.1413 136.396 73.1413H137.468V74.3733H136.156C135.345 74.3733 134.737 74.1866 134.332 73.8133C133.927 73.44 133.724 72.8266 133.724 71.9733V66.8053H132.588V65.6053H133.724V63.3973H135.18V65.6053H137.468V66.8053H135.18ZM147.232 69.6533C147.232 69.9306 147.216 70.224 147.184 70.5333H140.176C140.229 71.3973 140.523 72.0746 141.056 72.5653C141.6 73.0453 142.256 73.2853 143.024 73.2853C143.653 73.2853 144.176 73.1413 144.592 72.8533C145.019 72.5546 145.317 72.16 145.488 71.6693H147.056C146.821 72.512 146.352 73.2 145.648 73.7333C144.944 74.256 144.069 74.5173 143.024 74.5173C142.192 74.5173 141.445 74.3306 140.784 73.9573C140.133 73.584 139.621 73.056 139.248 72.3733C138.875 71.68 138.688 70.88 138.688 69.9733C138.688 69.0666 138.869 68.272 139.232 67.5893C139.595 66.9066 140.101 66.384 140.752 66.0213C141.413 65.648 142.171 65.4613 143.024 65.4613C143.856 65.4613 144.592 65.6426 145.232 66.0053C145.872 66.368 146.363 66.8693 146.704 67.5093C147.056 68.1386 147.232 68.8533 147.232 69.6533ZM145.728 69.3493C145.728 68.7946 145.605 68.32 145.36 67.9253C145.115 67.52 144.779 67.216 144.352 67.0133C143.936 66.8 143.472 66.6933 142.96 66.6933C142.224 66.6933 141.595 66.928 141.072 67.3973C140.56 67.8666 140.267 68.5173 140.192 69.3493H145.728ZM150.658 72.3573L148.866 76.6613H147.89L149.058 72.3573H150.658ZM164.399 63.2213L160.767 70.1653V74.3733H159.311V70.1653L155.663 63.2213H157.279L160.031 68.8693L162.783 63.2213H164.399ZM169.759 74.5173C168.938 74.5173 168.191 74.3306 167.519 73.9573C166.858 73.584 166.335 73.056 165.951 72.3733C165.578 71.68 165.391 70.88 165.391 69.9733C165.391 69.0773 165.583 68.288 165.967 67.6053C166.362 66.912 166.895 66.384 167.567 66.0213C168.239 65.648 168.991 65.4613 169.823 65.4613C170.655 65.4613 171.407 65.648 172.079 66.0213C172.751 66.384 173.279 66.9066 173.663 67.5893C174.058 68.272 174.255 69.0666 174.255 69.9733C174.255 70.88 174.052 71.68 173.647 72.3733C173.252 73.056 172.714 73.584 172.031 73.9573C171.348 74.3306 170.591 74.5173 169.759 74.5173ZM169.759 73.2373C170.282 73.2373 170.772 73.1146 171.231 72.8693C171.69 72.624 172.058 72.256 172.335 71.7653C172.623 71.2746 172.767 70.6773 172.767 69.9733C172.767 69.2693 172.628 68.672 172.351 68.1813C172.074 67.6906 171.711 67.328 171.263 67.0933C170.815 66.848 170.33 66.7253 169.807 66.7253C169.274 66.7253 168.783 66.848 168.335 67.0933C167.898 67.328 167.546 67.6906 167.279 68.1813C167.012 68.672 166.879 69.2693 166.879 69.9733C166.879 70.688 167.007 71.2906 167.263 71.7813C167.53 72.272 167.882 72.64 168.319 72.8853C168.756 73.12 169.236 73.2373 169.759 73.2373ZM183.946 65.6053V74.3733H182.49V73.0773C182.212 73.5253 181.823 73.8773 181.322 74.1333C180.831 74.3786 180.287 74.5013 179.69 74.5013C179.007 74.5013 178.394 74.3626 177.85 74.0853C177.306 73.7973 176.874 73.3706 176.554 72.8053C176.244 72.24 176.09 71.552 176.09 70.7413V65.6053H177.53V70.5493C177.53 71.4133 177.748 72.08 178.186 72.5493C178.623 73.008 179.22 73.2373 179.978 73.2373C180.756 73.2373 181.37 72.9973 181.818 72.5173C182.266 72.0373 182.49 71.3386 182.49 70.4213V65.6053H183.946ZM199.118 66.4533C198.808 65.8026 198.36 65.3013 197.774 64.9493C197.187 64.5866 196.504 64.4053 195.726 64.4053C194.947 64.4053 194.243 64.5866 193.614 64.9493C192.995 65.3013 192.504 65.8133 192.142 66.4853C191.79 67.1466 191.614 67.9146 191.614 68.7893C191.614 69.664 191.79 70.432 192.142 71.0933C192.504 71.7546 192.995 72.2666 193.614 72.6293C194.243 72.9813 194.947 73.1573 195.726 73.1573C196.814 73.1573 197.71 72.832 198.414 72.1813C199.118 71.5306 199.528 70.6506 199.646 69.5413H195.198V68.3573H201.198V69.4773C201.112 70.3946 200.824 71.2373 200.334 72.0053C199.843 72.7626 199.198 73.3653 198.398 73.8133C197.598 74.2506 196.707 74.4693 195.726 74.4693C194.691 74.4693 193.747 74.2293 192.894 73.7493C192.04 73.2586 191.363 72.5813 190.862 71.7173C190.371 70.8533 190.126 69.8773 190.126 68.7893C190.126 67.7013 190.371 66.7253 190.862 65.8613C191.363 64.9866 192.04 64.3093 192.894 63.8293C193.747 63.3386 194.691 63.0933 195.726 63.0933C196.91 63.0933 197.955 63.3866 198.862 63.9733C199.779 64.56 200.446 65.3866 200.862 66.4533H199.118ZM204.579 67.0293C204.835 66.528 205.197 66.1386 205.667 65.8613C206.147 65.584 206.728 65.4453 207.411 65.4453V66.9493H207.027C205.395 66.9493 204.579 67.8346 204.579 69.6053V74.3733H203.123V65.6053H204.579V67.0293ZM212.915 74.5173C212.094 74.5173 211.347 74.3306 210.675 73.9573C210.014 73.584 209.491 73.056 209.107 72.3733C208.734 71.68 208.547 70.88 208.547 69.9733C208.547 69.0773 208.739 68.288 209.123 67.6053C209.518 66.912 210.051 66.384 210.723 66.0213C211.395 65.648 212.147 65.4613 212.979 65.4613C213.811 65.4613 214.563 65.648 215.235 66.0213C215.907 66.384 216.435 66.9066 216.819 67.5893C217.214 68.272 217.411 69.0666 217.411 69.9733C217.411 70.88 217.209 71.68 216.803 72.3733C216.409 73.056 215.87 73.584 215.187 73.9573C214.505 74.3306 213.747 74.5173 212.915 74.5173ZM212.915 73.2373C213.438 73.2373 213.929 73.1146 214.387 72.8693C214.846 72.624 215.214 72.256 215.491 71.7653C215.779 71.2746 215.923 70.6773 215.923 69.9733C215.923 69.2693 215.785 68.672 215.507 68.1813C215.23 67.6906 214.867 67.328 214.419 67.0933C213.971 66.848 213.486 66.7253 212.963 66.7253C212.43 66.7253 211.939 66.848 211.491 67.0933C211.054 67.328 210.702 67.6906 210.435 68.1813C210.169 68.672 210.035 69.2693 210.035 69.9733C210.035 70.688 210.163 71.2906 210.419 71.7813C210.686 72.272 211.038 72.64 211.475 72.8853C211.913 73.12 212.393 73.2373 212.915 73.2373ZM231.006 65.6053L228.27 74.3733H226.766L224.654 67.4133L222.542 74.3733H221.038L218.286 65.6053H219.774L221.79 72.9653L223.966 65.6053H225.454L227.582 72.9813L229.566 65.6053H231.006Z" fill="white"/>
</svg>
